<mxfile host="65bd71144e" pages="5">
    <diagram id="C5RBs43oDa-KdzZeNtuy" name="Bluetooth">
        <mxGraphModel dx="1865" dy="2471" grid="1" gridSize="10" guides="1" tooltips="1" connect="1" arrows="1" fold="1" page="1" pageScale="1" pageWidth="827" pageHeight="1169" math="0" shadow="0">
            <root>
                <mxCell id="WIyWlLk6GJQsqaUBKTNV-0"/>
                <mxCell id="WIyWlLk6GJQsqaUBKTNV-1" parent="WIyWlLk6GJQsqaUBKTNV-0"/>
                <mxCell id="EGloR7HXyGj_BB4Ntyn2-7" value="" style="edgeStyle=orthogonalEdgeStyle;rounded=0;orthogonalLoop=1;jettySize=auto;html=1;" parent="WIyWlLk6GJQsqaUBKTNV-1" source="WIyWlLk6GJQsqaUBKTNV-3" target="EGloR7HXyGj_BB4Ntyn2-6" edge="1">
                    <mxGeometry relative="1" as="geometry"/>
                </mxCell>
                <mxCell id="WIyWlLk6GJQsqaUBKTNV-3" value="&amp;nbsp;bluetooth();" style="rounded=1;whiteSpace=wrap;html=1;fontSize=12;glass=0;strokeWidth=1;shadow=0;" parent="WIyWlLk6GJQsqaUBKTNV-1" vertex="1">
                    <mxGeometry x="275" y="117" width="120" height="40" as="geometry"/>
                </mxCell>
                <mxCell id="EGloR7HXyGj_BB4Ntyn2-10" value="" style="edgeStyle=orthogonalEdgeStyle;rounded=0;orthogonalLoop=1;jettySize=auto;html=1;" parent="WIyWlLk6GJQsqaUBKTNV-1" source="EGloR7HXyGj_BB4Ntyn2-0" target="EGloR7HXyGj_BB4Ntyn2-9" edge="1">
                    <mxGeometry relative="1" as="geometry"/>
                </mxCell>
                <mxCell id="EGloR7HXyGj_BB4Ntyn2-12" value="" style="edgeStyle=orthogonalEdgeStyle;rounded=0;orthogonalLoop=1;jettySize=auto;html=1;" parent="WIyWlLk6GJQsqaUBKTNV-1" source="EGloR7HXyGj_BB4Ntyn2-0" target="EGloR7HXyGj_BB4Ntyn2-11" edge="1">
                    <mxGeometry relative="1" as="geometry"/>
                </mxCell>
                <mxCell id="EGloR7HXyGj_BB4Ntyn2-0" value="Serial.available() &amp;gt; 0" style="rhombus;whiteSpace=wrap;html=1;shadow=0;fontFamily=Helvetica;fontSize=12;align=center;strokeWidth=1;spacing=6;spacingTop=-4;" parent="WIyWlLk6GJQsqaUBKTNV-1" vertex="1">
                    <mxGeometry x="260" y="288" width="150" height="80" as="geometry"/>
                </mxCell>
                <mxCell id="EGloR7HXyGj_BB4Ntyn2-8" value="" style="edgeStyle=orthogonalEdgeStyle;rounded=0;orthogonalLoop=1;jettySize=auto;html=1;" parent="WIyWlLk6GJQsqaUBKTNV-1" source="EGloR7HXyGj_BB4Ntyn2-6" target="EGloR7HXyGj_BB4Ntyn2-0" edge="1">
                    <mxGeometry relative="1" as="geometry"/>
                </mxCell>
                <mxCell id="EGloR7HXyGj_BB4Ntyn2-6" value="&lt;div&gt;bool input_recived = false;&lt;/div&gt;&lt;div&gt;&amp;nbsp; bool act = false;&lt;/div&gt;" style="whiteSpace=wrap;html=1;rounded=1;shadow=0;strokeWidth=1;glass=0;" parent="WIyWlLk6GJQsqaUBKTNV-1" vertex="1">
                    <mxGeometry x="260" y="203" width="150" height="60" as="geometry"/>
                </mxCell>
                <mxCell id="EGloR7HXyGj_BB4Ntyn2-15" style="edgeStyle=orthogonalEdgeStyle;rounded=0;orthogonalLoop=1;jettySize=auto;html=1;entryX=0;entryY=0.5;entryDx=0;entryDy=0;exitX=0.444;exitY=0.983;exitDx=0;exitDy=0;exitPerimeter=0;" parent="WIyWlLk6GJQsqaUBKTNV-1" source="EGloR7HXyGj_BB4Ntyn2-9" target="EGloR7HXyGj_BB4Ntyn2-11" edge="1">
                    <mxGeometry relative="1" as="geometry"/>
                </mxCell>
                <mxCell id="EGloR7HXyGj_BB4Ntyn2-9" value="val_recived = Serial.read();&lt;br&gt;input_recived = true;" style="whiteSpace=wrap;html=1;shadow=0;strokeWidth=1;spacing=6;spacingTop=-4;" parent="WIyWlLk6GJQsqaUBKTNV-1" vertex="1">
                    <mxGeometry x="10" y="298" width="160" height="60" as="geometry"/>
                </mxCell>
                <mxCell id="EGloR7HXyGj_BB4Ntyn2-35" style="edgeStyle=orthogonalEdgeStyle;rounded=0;orthogonalLoop=1;jettySize=auto;html=1;entryX=0.5;entryY=0;entryDx=0;entryDy=0;" parent="WIyWlLk6GJQsqaUBKTNV-1" source="EGloR7HXyGj_BB4Ntyn2-11" target="EGloR7HXyGj_BB4Ntyn2-27" edge="1">
                    <mxGeometry relative="1" as="geometry"/>
                </mxCell>
                <mxCell id="EGloR7HXyGj_BB4Ntyn2-11" value="act = (val_recived != current_val) or input_recived ;" style="whiteSpace=wrap;html=1;shadow=0;strokeWidth=1;spacing=6;spacingTop=-4;" parent="WIyWlLk6GJQsqaUBKTNV-1" vertex="1">
                    <mxGeometry x="235" y="394" width="200" height="60" as="geometry"/>
                </mxCell>
                <mxCell id="EGloR7HXyGj_BB4Ntyn2-13" value="Yes" style="text;html=1;strokeColor=none;fillColor=none;align=center;verticalAlign=middle;whiteSpace=wrap;rounded=0;" parent="WIyWlLk6GJQsqaUBKTNV-1" vertex="1">
                    <mxGeometry x="190" y="298" width="60" height="30" as="geometry"/>
                </mxCell>
                <mxCell id="EGloR7HXyGj_BB4Ntyn2-14" value="No" style="text;html=1;strokeColor=none;fillColor=none;align=center;verticalAlign=middle;whiteSpace=wrap;rounded=0;" parent="WIyWlLk6GJQsqaUBKTNV-1" vertex="1">
                    <mxGeometry x="320" y="364" width="60" height="30" as="geometry"/>
                </mxCell>
                <mxCell id="dV8aV_4q76YpNf3Cbogu-1" value="" style="edgeStyle=orthogonalEdgeStyle;rounded=0;orthogonalLoop=1;jettySize=auto;html=1;" parent="WIyWlLk6GJQsqaUBKTNV-1" source="EGloR7HXyGj_BB4Ntyn2-16" target="dV8aV_4q76YpNf3Cbogu-0" edge="1">
                    <mxGeometry relative="1" as="geometry"/>
                </mxCell>
                <mxCell id="EGloR7HXyGj_BB4Ntyn2-16" value="int current_val = 0;&lt;br&gt;int val_recived = 0;&lt;br&gt;long cm = 0;" style="whiteSpace=wrap;html=1;rounded=1;shadow=0;strokeWidth=1;glass=0;" parent="WIyWlLk6GJQsqaUBKTNV-1" vertex="1">
                    <mxGeometry x="275" y="-180" width="120" height="60" as="geometry"/>
                </mxCell>
                <mxCell id="EGloR7HXyGj_BB4Ntyn2-30" value="" style="edgeStyle=orthogonalEdgeStyle;rounded=0;orthogonalLoop=1;jettySize=auto;html=1;exitX=0.5;exitY=1;exitDx=0;exitDy=0;" parent="WIyWlLk6GJQsqaUBKTNV-1" source="EGloR7HXyGj_BB4Ntyn2-27" target="EGloR7HXyGj_BB4Ntyn2-29" edge="1">
                    <mxGeometry relative="1" as="geometry"/>
                </mxCell>
                <mxCell id="EGloR7HXyGj_BB4Ntyn2-40" value="" style="edgeStyle=orthogonalEdgeStyle;rounded=0;orthogonalLoop=1;jettySize=auto;html=1;" parent="WIyWlLk6GJQsqaUBKTNV-1" source="EGloR7HXyGj_BB4Ntyn2-27" target="EGloR7HXyGj_BB4Ntyn2-39" edge="1">
                    <mxGeometry relative="1" as="geometry"/>
                </mxCell>
                <mxCell id="EGloR7HXyGj_BB4Ntyn2-27" value="if (val_recived == 56)" style="rhombus;whiteSpace=wrap;html=1;shadow=0;strokeWidth=1;spacing=6;spacingTop=-4;" parent="WIyWlLk6GJQsqaUBKTNV-1" vertex="1">
                    <mxGeometry x="250" y="479" width="170" height="80" as="geometry"/>
                </mxCell>
                <mxCell id="EGloR7HXyGj_BB4Ntyn2-44" style="edgeStyle=orthogonalEdgeStyle;rounded=0;orthogonalLoop=1;jettySize=auto;html=1;entryX=0;entryY=0.5;entryDx=0;entryDy=0;" parent="WIyWlLk6GJQsqaUBKTNV-1" source="EGloR7HXyGj_BB4Ntyn2-29" target="dV8aV_4q76YpNf3Cbogu-0" edge="1">
                    <mxGeometry relative="1" as="geometry">
                        <Array as="points">
                            <mxPoint x="-10" y="615"/>
                            <mxPoint x="-10" y="-54"/>
                        </Array>
                        <mxPoint x="210" y="-85" as="targetPoint"/>
                    </mxGeometry>
                </mxCell>
                <mxCell id="EGloR7HXyGj_BB4Ntyn2-29" value="obstacle Mode" style="whiteSpace=wrap;html=1;shadow=0;strokeWidth=1;spacing=6;spacingTop=-4;" parent="WIyWlLk6GJQsqaUBKTNV-1" vertex="1">
                    <mxGeometry x="275" y="600" width="120" height="30" as="geometry"/>
                </mxCell>
                <mxCell id="EGloR7HXyGj_BB4Ntyn2-34" value="Yes" style="text;html=1;strokeColor=none;fillColor=none;align=center;verticalAlign=middle;whiteSpace=wrap;rounded=0;" parent="WIyWlLk6GJQsqaUBKTNV-1" vertex="1">
                    <mxGeometry x="290" y="555" width="60" height="30" as="geometry"/>
                </mxCell>
                <mxCell id="EGloR7HXyGj_BB4Ntyn2-38" value="No" style="text;html=1;strokeColor=none;fillColor=none;align=center;verticalAlign=middle;whiteSpace=wrap;rounded=0;" parent="WIyWlLk6GJQsqaUBKTNV-1" vertex="1">
                    <mxGeometry x="430" y="490" width="60" height="30" as="geometry"/>
                </mxCell>
                <mxCell id="EGloR7HXyGj_BB4Ntyn2-42" value="" style="edgeStyle=orthogonalEdgeStyle;rounded=0;orthogonalLoop=1;jettySize=auto;html=1;" parent="WIyWlLk6GJQsqaUBKTNV-1" source="EGloR7HXyGj_BB4Ntyn2-39" target="EGloR7HXyGj_BB4Ntyn2-41" edge="1">
                    <mxGeometry relative="1" as="geometry"/>
                </mxCell>
                <mxCell id="EGloR7HXyGj_BB4Ntyn2-91" style="edgeStyle=orthogonalEdgeStyle;rounded=0;orthogonalLoop=1;jettySize=auto;html=1;entryX=0;entryY=0.5;entryDx=0;entryDy=0;" parent="WIyWlLk6GJQsqaUBKTNV-1" source="EGloR7HXyGj_BB4Ntyn2-39" target="EGloR7HXyGj_BB4Ntyn2-48" edge="1">
                    <mxGeometry relative="1" as="geometry"/>
                </mxCell>
                <mxCell id="EGloR7HXyGj_BB4Ntyn2-39" value="if ( val_recived == 49 and cm &amp;gt;= 25)" style="rhombus;whiteSpace=wrap;html=1;shadow=0;strokeWidth=1;spacing=6;spacingTop=-4;" parent="WIyWlLk6GJQsqaUBKTNV-1" vertex="1">
                    <mxGeometry x="505" y="479" width="260" height="80" as="geometry"/>
                </mxCell>
                <mxCell id="dV8aV_4q76YpNf3Cbogu-7" style="edgeStyle=orthogonalEdgeStyle;rounded=0;orthogonalLoop=1;jettySize=auto;html=1;entryX=0;entryY=0.5;entryDx=0;entryDy=0;" parent="WIyWlLk6GJQsqaUBKTNV-1" source="EGloR7HXyGj_BB4Ntyn2-41" target="dV8aV_4q76YpNf3Cbogu-0" edge="1">
                    <mxGeometry relative="1" as="geometry">
                        <Array as="points">
                            <mxPoint x="635" y="650"/>
                            <mxPoint x="-10" y="650"/>
                            <mxPoint x="-10" y="-54"/>
                        </Array>
                    </mxGeometry>
                </mxCell>
                <mxCell id="EGloR7HXyGj_BB4Ntyn2-41" value="move_forward" style="whiteSpace=wrap;html=1;shadow=0;strokeWidth=1;spacing=6;spacingTop=-4;" parent="WIyWlLk6GJQsqaUBKTNV-1" vertex="1">
                    <mxGeometry x="575" y="609" width="120" height="30" as="geometry"/>
                </mxCell>
                <mxCell id="EGloR7HXyGj_BB4Ntyn2-43" value="Yes" style="text;html=1;strokeColor=none;fillColor=none;align=center;verticalAlign=middle;whiteSpace=wrap;rounded=0;" parent="WIyWlLk6GJQsqaUBKTNV-1" vertex="1">
                    <mxGeometry x="585" y="555" width="60" height="30" as="geometry"/>
                </mxCell>
                <mxCell id="EGloR7HXyGj_BB4Ntyn2-52" value="" style="edgeStyle=orthogonalEdgeStyle;rounded=0;orthogonalLoop=1;jettySize=auto;html=1;" parent="WIyWlLk6GJQsqaUBKTNV-1" source="EGloR7HXyGj_BB4Ntyn2-48" target="EGloR7HXyGj_BB4Ntyn2-51" edge="1">
                    <mxGeometry relative="1" as="geometry"/>
                </mxCell>
                <mxCell id="EGloR7HXyGj_BB4Ntyn2-59" value="" style="edgeStyle=orthogonalEdgeStyle;rounded=0;orthogonalLoop=1;jettySize=auto;html=1;" parent="WIyWlLk6GJQsqaUBKTNV-1" target="EGloR7HXyGj_BB4Ntyn2-58" edge="1">
                    <mxGeometry relative="1" as="geometry">
                        <mxPoint x="950" y="170" as="sourcePoint"/>
                    </mxGeometry>
                </mxCell>
                <mxCell id="EGloR7HXyGj_BB4Ntyn2-48" value="if (val_recived == 50 and act)" style="rhombus;whiteSpace=wrap;html=1;shadow=0;strokeWidth=1;spacing=6;spacingTop=-4;" parent="WIyWlLk6GJQsqaUBKTNV-1" vertex="1">
                    <mxGeometry x="720" y="130" width="260" height="80" as="geometry"/>
                </mxCell>
                <mxCell id="EGloR7HXyGj_BB4Ntyn2-56" value="" style="edgeStyle=orthogonalEdgeStyle;rounded=0;orthogonalLoop=1;jettySize=auto;html=1;" parent="WIyWlLk6GJQsqaUBKTNV-1" source="EGloR7HXyGj_BB4Ntyn2-51" target="EGloR7HXyGj_BB4Ntyn2-55" edge="1">
                    <mxGeometry relative="1" as="geometry"/>
                </mxCell>
                <mxCell id="EGloR7HXyGj_BB4Ntyn2-51" value="move_backward" style="whiteSpace=wrap;html=1;shadow=0;strokeWidth=1;spacing=6;spacingTop=-4;" parent="WIyWlLk6GJQsqaUBKTNV-1" vertex="1">
                    <mxGeometry x="790" y="250" width="120" height="30" as="geometry"/>
                </mxCell>
                <mxCell id="EGloR7HXyGj_BB4Ntyn2-53" value="Yes" style="text;html=1;strokeColor=none;fillColor=none;align=center;verticalAlign=middle;whiteSpace=wrap;rounded=0;" parent="WIyWlLk6GJQsqaUBKTNV-1" vertex="1">
                    <mxGeometry x="800" y="215" width="60" height="30" as="geometry"/>
                </mxCell>
                <mxCell id="EGloR7HXyGj_BB4Ntyn2-84" value="" style="edgeStyle=orthogonalEdgeStyle;rounded=0;orthogonalLoop=1;jettySize=auto;html=1;" parent="WIyWlLk6GJQsqaUBKTNV-1" source="EGloR7HXyGj_BB4Ntyn2-55" target="EGloR7HXyGj_BB4Ntyn2-83" edge="1">
                    <mxGeometry relative="1" as="geometry"/>
                </mxCell>
                <mxCell id="EGloR7HXyGj_BB4Ntyn2-55" value="stop_moving" style="whiteSpace=wrap;html=1;shadow=0;strokeWidth=1;spacing=6;spacingTop=-4;" parent="WIyWlLk6GJQsqaUBKTNV-1" vertex="1">
                    <mxGeometry x="790" y="321" width="120" height="30" as="geometry"/>
                </mxCell>
                <mxCell id="EGloR7HXyGj_BB4Ntyn2-67" style="edgeStyle=orthogonalEdgeStyle;rounded=0;orthogonalLoop=1;jettySize=auto;html=1;entryX=0.5;entryY=0;entryDx=0;entryDy=0;" parent="WIyWlLk6GJQsqaUBKTNV-1" source="EGloR7HXyGj_BB4Ntyn2-58" target="EGloR7HXyGj_BB4Ntyn2-61" edge="1">
                    <mxGeometry relative="1" as="geometry"/>
                </mxCell>
                <mxCell id="EGloR7HXyGj_BB4Ntyn2-75" value="" style="edgeStyle=orthogonalEdgeStyle;rounded=0;orthogonalLoop=1;jettySize=auto;html=1;" parent="WIyWlLk6GJQsqaUBKTNV-1" source="EGloR7HXyGj_BB4Ntyn2-58" target="EGloR7HXyGj_BB4Ntyn2-74" edge="1">
                    <mxGeometry relative="1" as="geometry"/>
                </mxCell>
                <mxCell id="EGloR7HXyGj_BB4Ntyn2-58" value="if (val_recived == 52 and act)" style="rhombus;whiteSpace=wrap;html=1;shadow=0;strokeWidth=1;spacing=6;spacingTop=-4;" parent="WIyWlLk6GJQsqaUBKTNV-1" vertex="1">
                    <mxGeometry x="1030" y="130" width="260" height="80" as="geometry"/>
                </mxCell>
                <mxCell id="EGloR7HXyGj_BB4Ntyn2-60" value="" style="edgeStyle=orthogonalEdgeStyle;rounded=0;orthogonalLoop=1;jettySize=auto;html=1;" parent="WIyWlLk6GJQsqaUBKTNV-1" source="EGloR7HXyGj_BB4Ntyn2-61" target="EGloR7HXyGj_BB4Ntyn2-63" edge="1">
                    <mxGeometry relative="1" as="geometry"/>
                </mxCell>
                <mxCell id="EGloR7HXyGj_BB4Ntyn2-61" value="move_left" style="whiteSpace=wrap;html=1;shadow=0;strokeWidth=1;spacing=6;spacingTop=-4;" parent="WIyWlLk6GJQsqaUBKTNV-1" vertex="1">
                    <mxGeometry x="1100" y="250" width="120" height="30" as="geometry"/>
                </mxCell>
                <mxCell id="EGloR7HXyGj_BB4Ntyn2-62" value="Yes" style="text;html=1;strokeColor=none;fillColor=none;align=center;verticalAlign=middle;whiteSpace=wrap;rounded=0;" parent="WIyWlLk6GJQsqaUBKTNV-1" vertex="1">
                    <mxGeometry x="1105" y="215" width="60" height="30" as="geometry"/>
                </mxCell>
                <mxCell id="EGloR7HXyGj_BB4Ntyn2-88" value="" style="edgeStyle=orthogonalEdgeStyle;rounded=0;orthogonalLoop=1;jettySize=auto;html=1;" parent="WIyWlLk6GJQsqaUBKTNV-1" source="EGloR7HXyGj_BB4Ntyn2-63" target="EGloR7HXyGj_BB4Ntyn2-87" edge="1">
                    <mxGeometry relative="1" as="geometry"/>
                </mxCell>
                <mxCell id="EGloR7HXyGj_BB4Ntyn2-63" value="stop_moving" style="whiteSpace=wrap;html=1;shadow=0;strokeWidth=1;spacing=6;spacingTop=-4;" parent="WIyWlLk6GJQsqaUBKTNV-1" vertex="1">
                    <mxGeometry x="1100" y="321" width="120" height="30" as="geometry"/>
                </mxCell>
                <mxCell id="EGloR7HXyGj_BB4Ntyn2-69" value="No" style="text;html=1;strokeColor=none;fillColor=none;align=center;verticalAlign=middle;whiteSpace=wrap;rounded=0;" parent="WIyWlLk6GJQsqaUBKTNV-1" vertex="1">
                    <mxGeometry x="970" y="140" width="60" height="30" as="geometry"/>
                </mxCell>
                <mxCell id="EGloR7HXyGj_BB4Ntyn2-81" value="" style="edgeStyle=orthogonalEdgeStyle;rounded=0;orthogonalLoop=1;jettySize=auto;html=1;entryX=0.5;entryY=0;entryDx=0;entryDy=0;" parent="WIyWlLk6GJQsqaUBKTNV-1" source="EGloR7HXyGj_BB4Ntyn2-74" target="EGloR7HXyGj_BB4Ntyn2-79" edge="1">
                    <mxGeometry relative="1" as="geometry"/>
                </mxCell>
                <mxCell id="EGloR7HXyGj_BB4Ntyn2-93" style="edgeStyle=orthogonalEdgeStyle;rounded=0;orthogonalLoop=1;jettySize=auto;html=1;exitX=1;exitY=0.5;exitDx=0;exitDy=0;entryX=1;entryY=0.5;entryDx=0;entryDy=0;" parent="WIyWlLk6GJQsqaUBKTNV-1" source="EGloR7HXyGj_BB4Ntyn2-74" target="EGloR7HXyGj_BB4Ntyn2-89" edge="1">
                    <mxGeometry relative="1" as="geometry"/>
                </mxCell>
                <mxCell id="EGloR7HXyGj_BB4Ntyn2-74" value="if (val_recived == 51 and act)" style="rhombus;whiteSpace=wrap;html=1;shadow=0;strokeWidth=1;spacing=6;spacingTop=-4;" parent="WIyWlLk6GJQsqaUBKTNV-1" vertex="1">
                    <mxGeometry x="1339" y="130" width="260" height="80" as="geometry"/>
                </mxCell>
                <mxCell id="EGloR7HXyGj_BB4Ntyn2-76" value="No" style="text;html=1;strokeColor=none;fillColor=none;align=center;verticalAlign=middle;whiteSpace=wrap;rounded=0;" parent="WIyWlLk6GJQsqaUBKTNV-1" vertex="1">
                    <mxGeometry x="1279" y="140" width="60" height="30" as="geometry"/>
                </mxCell>
                <mxCell id="EGloR7HXyGj_BB4Ntyn2-82" value="" style="edgeStyle=orthogonalEdgeStyle;rounded=0;orthogonalLoop=1;jettySize=auto;html=1;" parent="WIyWlLk6GJQsqaUBKTNV-1" source="EGloR7HXyGj_BB4Ntyn2-79" target="EGloR7HXyGj_BB4Ntyn2-80" edge="1">
                    <mxGeometry relative="1" as="geometry"/>
                </mxCell>
                <mxCell id="EGloR7HXyGj_BB4Ntyn2-79" value="move_right" style="whiteSpace=wrap;html=1;shadow=0;strokeWidth=1;spacing=6;spacingTop=-4;" parent="WIyWlLk6GJQsqaUBKTNV-1" vertex="1">
                    <mxGeometry x="1409" y="250" width="120" height="30" as="geometry"/>
                </mxCell>
                <mxCell id="EGloR7HXyGj_BB4Ntyn2-90" value="" style="edgeStyle=orthogonalEdgeStyle;rounded=0;orthogonalLoop=1;jettySize=auto;html=1;" parent="WIyWlLk6GJQsqaUBKTNV-1" source="EGloR7HXyGj_BB4Ntyn2-80" target="EGloR7HXyGj_BB4Ntyn2-89" edge="1">
                    <mxGeometry relative="1" as="geometry"/>
                </mxCell>
                <mxCell id="EGloR7HXyGj_BB4Ntyn2-80" value="stop_moving" style="whiteSpace=wrap;html=1;shadow=0;strokeWidth=1;spacing=6;spacingTop=-4;" parent="WIyWlLk6GJQsqaUBKTNV-1" vertex="1">
                    <mxGeometry x="1409" y="321" width="120" height="30" as="geometry"/>
                </mxCell>
                <mxCell id="EGloR7HXyGj_BB4Ntyn2-96" style="edgeStyle=orthogonalEdgeStyle;rounded=0;orthogonalLoop=1;jettySize=auto;html=1;entryX=1;entryY=0.5;entryDx=0;entryDy=0;" parent="WIyWlLk6GJQsqaUBKTNV-1" source="EGloR7HXyGj_BB4Ntyn2-83" target="dV8aV_4q76YpNf3Cbogu-0" edge="1">
                    <mxGeometry relative="1" as="geometry">
                        <Array as="points">
                            <mxPoint x="850" y="480"/>
                            <mxPoint x="1650" y="480"/>
                            <mxPoint x="1650" y="-54"/>
                        </Array>
                    </mxGeometry>
                </mxCell>
                <mxCell id="EGloR7HXyGj_BB4Ntyn2-83" value="current_val = val_recived;" style="whiteSpace=wrap;html=1;shadow=0;strokeWidth=1;spacing=6;spacingTop=-4;" parent="WIyWlLk6GJQsqaUBKTNV-1" vertex="1">
                    <mxGeometry x="765" y="390" width="170" height="30" as="geometry"/>
                </mxCell>
                <mxCell id="EGloR7HXyGj_BB4Ntyn2-97" style="edgeStyle=orthogonalEdgeStyle;rounded=0;orthogonalLoop=1;jettySize=auto;html=1;" parent="WIyWlLk6GJQsqaUBKTNV-1" source="EGloR7HXyGj_BB4Ntyn2-87" edge="1">
                    <mxGeometry relative="1" as="geometry">
                        <mxPoint x="1160" y="480" as="targetPoint"/>
                    </mxGeometry>
                </mxCell>
                <mxCell id="EGloR7HXyGj_BB4Ntyn2-87" value="current_val = val_recived;" style="whiteSpace=wrap;html=1;shadow=0;strokeWidth=1;spacing=6;spacingTop=-4;" parent="WIyWlLk6GJQsqaUBKTNV-1" vertex="1">
                    <mxGeometry x="1075" y="390" width="170" height="30" as="geometry"/>
                </mxCell>
                <mxCell id="EGloR7HXyGj_BB4Ntyn2-98" style="edgeStyle=orthogonalEdgeStyle;rounded=0;orthogonalLoop=1;jettySize=auto;html=1;" parent="WIyWlLk6GJQsqaUBKTNV-1" source="EGloR7HXyGj_BB4Ntyn2-89" edge="1">
                    <mxGeometry relative="1" as="geometry">
                        <mxPoint x="1469" y="480" as="targetPoint"/>
                    </mxGeometry>
                </mxCell>
                <mxCell id="EGloR7HXyGj_BB4Ntyn2-89" value="current_val = val_recived;" style="whiteSpace=wrap;html=1;shadow=0;strokeWidth=1;spacing=6;spacingTop=-4;" parent="WIyWlLk6GJQsqaUBKTNV-1" vertex="1">
                    <mxGeometry x="1384" y="390" width="170" height="30" as="geometry"/>
                </mxCell>
                <mxCell id="EGloR7HXyGj_BB4Ntyn2-92" value="No" style="text;html=1;strokeColor=none;fillColor=none;align=center;verticalAlign=middle;whiteSpace=wrap;rounded=0;" parent="WIyWlLk6GJQsqaUBKTNV-1" vertex="1">
                    <mxGeometry x="590" y="409" width="60" height="30" as="geometry"/>
                </mxCell>
                <mxCell id="EGloR7HXyGj_BB4Ntyn2-94" value="Yes" style="text;html=1;strokeColor=none;fillColor=none;align=center;verticalAlign=middle;whiteSpace=wrap;rounded=0;" parent="WIyWlLk6GJQsqaUBKTNV-1" vertex="1">
                    <mxGeometry x="1409" y="215" width="60" height="30" as="geometry"/>
                </mxCell>
                <mxCell id="EGloR7HXyGj_BB4Ntyn2-95" value="No" style="text;html=1;strokeColor=none;fillColor=none;align=center;verticalAlign=middle;whiteSpace=wrap;rounded=0;" parent="WIyWlLk6GJQsqaUBKTNV-1" vertex="1">
                    <mxGeometry x="1580" y="140" width="60" height="30" as="geometry"/>
                </mxCell>
                <mxCell id="EGloR7HXyGj_BB4Ntyn2-99" value="Text" style="text;html=1;align=center;verticalAlign=middle;resizable=0;points=[];autosize=1;strokeColor=none;fillColor=none;" parent="WIyWlLk6GJQsqaUBKTNV-1" vertex="1">
                    <mxGeometry x="830" y="820" width="40" height="20" as="geometry"/>
                </mxCell>
                <mxCell id="dV8aV_4q76YpNf3Cbogu-5" value="" style="edgeStyle=orthogonalEdgeStyle;rounded=0;orthogonalLoop=1;jettySize=auto;html=1;" parent="WIyWlLk6GJQsqaUBKTNV-1" source="dV8aV_4q76YpNf3Cbogu-0" target="dV8aV_4q76YpNf3Cbogu-4" edge="1">
                    <mxGeometry relative="1" as="geometry"/>
                </mxCell>
                <mxCell id="dV8aV_4q76YpNf3Cbogu-0" value="Main Loop" style="rounded=1;whiteSpace=wrap;html=1;shadow=0;strokeWidth=1;glass=0;" parent="WIyWlLk6GJQsqaUBKTNV-1" vertex="1">
                    <mxGeometry x="275" y="-69" width="120" height="30" as="geometry"/>
                </mxCell>
                <mxCell id="dV8aV_4q76YpNf3Cbogu-6" value="" style="edgeStyle=orthogonalEdgeStyle;rounded=0;orthogonalLoop=1;jettySize=auto;html=1;" parent="WIyWlLk6GJQsqaUBKTNV-1" source="dV8aV_4q76YpNf3Cbogu-4" target="WIyWlLk6GJQsqaUBKTNV-3" edge="1">
                    <mxGeometry relative="1" as="geometry"/>
                </mxCell>
                <mxCell id="dV8aV_4q76YpNf3Cbogu-4" value="cm = call_distance();" style="rounded=1;whiteSpace=wrap;html=1;shadow=0;strokeWidth=1;glass=0;" parent="WIyWlLk6GJQsqaUBKTNV-1" vertex="1">
                    <mxGeometry x="275" y="26" width="120" height="30" as="geometry"/>
                </mxCell>
            </root>
        </mxGraphModel>
    </diagram>
    <diagram name="Obstacle" id="ICjwhA064xn3rWVQyE_e">
        <mxGraphModel dx="1038" dy="2471" grid="1" gridSize="10" guides="1" tooltips="1" connect="1" arrows="1" fold="1" page="1" pageScale="1" pageWidth="827" pageHeight="1169" math="0" shadow="0">
            <root>
                <mxCell id="XU07n4T42WI_5-m4gutn-0"/>
                <mxCell id="XU07n4T42WI_5-m4gutn-1" parent="XU07n4T42WI_5-m4gutn-0"/>
                <mxCell id="BcVM4QOwG3s_4vgD9s6S-2" value="" style="edgeStyle=orthogonalEdgeStyle;rounded=0;orthogonalLoop=1;jettySize=auto;html=1;" parent="XU07n4T42WI_5-m4gutn-1" source="XU07n4T42WI_5-m4gutn-3" target="BcVM4QOwG3s_4vgD9s6S-1" edge="1">
                    <mxGeometry relative="1" as="geometry"/>
                </mxCell>
                <mxCell id="XU07n4T42WI_5-m4gutn-3" value="obstacle();" style="rounded=1;whiteSpace=wrap;html=1;fontSize=12;glass=0;strokeWidth=1;shadow=0;" parent="XU07n4T42WI_5-m4gutn-1" vertex="1">
                    <mxGeometry x="275" width="120" height="30" as="geometry"/>
                </mxCell>
                <mxCell id="XU07n4T42WI_5-m4gutn-15" value="" style="edgeStyle=orthogonalEdgeStyle;rounded=0;orthogonalLoop=1;jettySize=auto;html=1;" parent="XU07n4T42WI_5-m4gutn-1" source="XU07n4T42WI_5-m4gutn-16" target="XU07n4T42WI_5-m4gutn-66" edge="1">
                    <mxGeometry relative="1" as="geometry"/>
                </mxCell>
                <mxCell id="XU07n4T42WI_5-m4gutn-16" value="long cm = 0;" style="whiteSpace=wrap;html=1;rounded=1;shadow=0;strokeWidth=1;glass=0;" parent="XU07n4T42WI_5-m4gutn-1" vertex="1">
                    <mxGeometry x="275" y="-150" width="120" height="30" as="geometry"/>
                </mxCell>
                <mxCell id="XU07n4T42WI_5-m4gutn-63" value="No" style="text;html=1;strokeColor=none;fillColor=none;align=center;verticalAlign=middle;whiteSpace=wrap;rounded=0;" parent="XU07n4T42WI_5-m4gutn-1" vertex="1">
                    <mxGeometry x="1602" y="264" width="60" height="30" as="geometry"/>
                </mxCell>
                <mxCell id="BcVM4QOwG3s_4vgD9s6S-0" value="" style="edgeStyle=orthogonalEdgeStyle;rounded=0;orthogonalLoop=1;jettySize=auto;html=1;" parent="XU07n4T42WI_5-m4gutn-1" source="XU07n4T42WI_5-m4gutn-66" target="XU07n4T42WI_5-m4gutn-3" edge="1">
                    <mxGeometry relative="1" as="geometry"/>
                </mxCell>
                <mxCell id="XU07n4T42WI_5-m4gutn-66" value="Main Loop" style="rounded=1;whiteSpace=wrap;html=1;shadow=0;strokeWidth=1;glass=0;" parent="XU07n4T42WI_5-m4gutn-1" vertex="1">
                    <mxGeometry x="275" y="-82" width="120" height="30" as="geometry"/>
                </mxCell>
                <mxCell id="BcVM4QOwG3s_4vgD9s6S-4" style="edgeStyle=orthogonalEdgeStyle;rounded=0;orthogonalLoop=1;jettySize=auto;html=1;exitX=0;exitY=0.5;exitDx=0;exitDy=0;" parent="XU07n4T42WI_5-m4gutn-1" source="bP1f-SLKXjQqlH7ht-Pp-0" target="bP1f-SLKXjQqlH7ht-Pp-2" edge="1">
                    <mxGeometry relative="1" as="geometry"/>
                </mxCell>
                <mxCell id="BcVM4QOwG3s_4vgD9s6S-8" value="" style="edgeStyle=orthogonalEdgeStyle;rounded=0;orthogonalLoop=1;jettySize=auto;html=1;" parent="XU07n4T42WI_5-m4gutn-1" source="bP1f-SLKXjQqlH7ht-Pp-0" target="BcVM4QOwG3s_4vgD9s6S-7" edge="1">
                    <mxGeometry relative="1" as="geometry"/>
                </mxCell>
                <mxCell id="bP1f-SLKXjQqlH7ht-Pp-0" value="if (canImoveForward.resp)" style="rhombus;whiteSpace=wrap;html=1;flipH=0;flipV=1;" parent="XU07n4T42WI_5-m4gutn-1" vertex="1">
                    <mxGeometry x="202.5" y="140" width="265" height="80" as="geometry"/>
                </mxCell>
                <mxCell id="BcVM4QOwG3s_4vgD9s6S-6" style="edgeStyle=orthogonalEdgeStyle;rounded=0;orthogonalLoop=1;jettySize=auto;html=1;entryX=0;entryY=0.5;entryDx=0;entryDy=0;" parent="XU07n4T42WI_5-m4gutn-1" source="bP1f-SLKXjQqlH7ht-Pp-2" target="XU07n4T42WI_5-m4gutn-66" edge="1">
                    <mxGeometry relative="1" as="geometry">
                        <Array as="points">
                            <mxPoint x="10" y="180"/>
                            <mxPoint x="10" y="-67"/>
                        </Array>
                    </mxGeometry>
                </mxCell>
                <mxCell id="bP1f-SLKXjQqlH7ht-Pp-2" value="move_forward" style="whiteSpace=wrap;html=1;" parent="XU07n4T42WI_5-m4gutn-1" vertex="1">
                    <mxGeometry x="32" y="165" width="120" height="30" as="geometry"/>
                </mxCell>
                <mxCell id="bP1f-SLKXjQqlH7ht-Pp-4" value="Yes" style="text;html=1;strokeColor=none;fillColor=none;align=center;verticalAlign=middle;whiteSpace=wrap;rounded=0;" parent="XU07n4T42WI_5-m4gutn-1" vertex="1">
                    <mxGeometry x="152" y="180" width="60" height="30" as="geometry"/>
                </mxCell>
                <mxCell id="BcVM4QOwG3s_4vgD9s6S-3" value="" style="edgeStyle=orthogonalEdgeStyle;rounded=0;orthogonalLoop=1;jettySize=auto;html=1;" parent="XU07n4T42WI_5-m4gutn-1" source="BcVM4QOwG3s_4vgD9s6S-1" target="bP1f-SLKXjQqlH7ht-Pp-0" edge="1">
                    <mxGeometry relative="1" as="geometry"/>
                </mxCell>
                <mxCell id="BcVM4QOwG3s_4vgD9s6S-1" value="outcome canImoveForward = can_i_move_forward();" style="rounded=1;whiteSpace=wrap;html=1;fontSize=12;glass=0;strokeWidth=1;shadow=0;" parent="XU07n4T42WI_5-m4gutn-1" vertex="1">
                    <mxGeometry x="171.25" y="60" width="327.5" height="30" as="geometry"/>
                </mxCell>
                <mxCell id="BcVM4QOwG3s_4vgD9s6S-11" value="" style="edgeStyle=orthogonalEdgeStyle;rounded=0;orthogonalLoop=1;jettySize=auto;html=1;" parent="XU07n4T42WI_5-m4gutn-1" source="BcVM4QOwG3s_4vgD9s6S-7" target="BcVM4QOwG3s_4vgD9s6S-10" edge="1">
                    <mxGeometry relative="1" as="geometry"/>
                </mxCell>
                <mxCell id="BcVM4QOwG3s_4vgD9s6S-7" value="&lt;div&gt;outcome canImoveLeft = can_i_move_left(debug);&lt;/div&gt;&lt;div&gt;&amp;nbsp; &amp;nbsp; outcome canImoveRight = can_i_move_right(debug);&lt;/div&gt;" style="whiteSpace=wrap;html=1;" parent="XU07n4T42WI_5-m4gutn-1" vertex="1">
                    <mxGeometry x="530" y="150" width="320" height="60" as="geometry"/>
                </mxCell>
                <mxCell id="BcVM4QOwG3s_4vgD9s6S-9" value="No" style="text;html=1;strokeColor=none;fillColor=none;align=center;verticalAlign=middle;whiteSpace=wrap;rounded=0;" parent="XU07n4T42WI_5-m4gutn-1" vertex="1">
                    <mxGeometry x="460" y="180" width="60" height="30" as="geometry"/>
                </mxCell>
                <mxCell id="BcVM4QOwG3s_4vgD9s6S-13" value="" style="edgeStyle=orthogonalEdgeStyle;rounded=0;orthogonalLoop=1;jettySize=auto;html=1;" parent="XU07n4T42WI_5-m4gutn-1" source="BcVM4QOwG3s_4vgD9s6S-10" target="BcVM4QOwG3s_4vgD9s6S-12" edge="1">
                    <mxGeometry relative="1" as="geometry"/>
                </mxCell>
                <mxCell id="BcVM4QOwG3s_4vgD9s6S-26" value="" style="edgeStyle=orthogonalEdgeStyle;rounded=0;orthogonalLoop=1;jettySize=auto;html=1;" parent="XU07n4T42WI_5-m4gutn-1" source="BcVM4QOwG3s_4vgD9s6S-10" target="BcVM4QOwG3s_4vgD9s6S-25" edge="1">
                    <mxGeometry relative="1" as="geometry"/>
                </mxCell>
                <mxCell id="BcVM4QOwG3s_4vgD9s6S-10" value="if (canImoveLeft.resp and canImoveRight.resp)" style="rhombus;whiteSpace=wrap;html=1;" parent="XU07n4T42WI_5-m4gutn-1" vertex="1">
                    <mxGeometry x="540" y="260" width="300" height="80" as="geometry"/>
                </mxCell>
                <mxCell id="BcVM4QOwG3s_4vgD9s6S-16" value="" style="edgeStyle=orthogonalEdgeStyle;rounded=0;orthogonalLoop=1;jettySize=auto;html=1;" parent="XU07n4T42WI_5-m4gutn-1" source="BcVM4QOwG3s_4vgD9s6S-12" target="BcVM4QOwG3s_4vgD9s6S-15" edge="1">
                    <mxGeometry relative="1" as="geometry"/>
                </mxCell>
                <mxCell id="BcVM4QOwG3s_4vgD9s6S-22" style="edgeStyle=orthogonalEdgeStyle;rounded=0;orthogonalLoop=1;jettySize=auto;html=1;entryX=1;entryY=0.5;entryDx=0;entryDy=0;" parent="XU07n4T42WI_5-m4gutn-1" source="BcVM4QOwG3s_4vgD9s6S-12" target="BcVM4QOwG3s_4vgD9s6S-21" edge="1">
                    <mxGeometry relative="1" as="geometry">
                        <Array as="points">
                            <mxPoint x="335" y="405"/>
                        </Array>
                    </mxGeometry>
                </mxCell>
                <mxCell id="BcVM4QOwG3s_4vgD9s6S-12" value="if (canImoveLeft.dist &amp;gt;= canImoveRight.dist)" style="rhombus;whiteSpace=wrap;html=1;" parent="XU07n4T42WI_5-m4gutn-1" vertex="1">
                    <mxGeometry x="190" y="260" width="290" height="80" as="geometry"/>
                </mxCell>
                <mxCell id="BcVM4QOwG3s_4vgD9s6S-14" value="Yes" style="text;html=1;strokeColor=none;fillColor=none;align=center;verticalAlign=middle;whiteSpace=wrap;rounded=0;" parent="XU07n4T42WI_5-m4gutn-1" vertex="1">
                    <mxGeometry x="480" y="270" width="60" height="30" as="geometry"/>
                </mxCell>
                <mxCell id="BcVM4QOwG3s_4vgD9s6S-17" style="edgeStyle=orthogonalEdgeStyle;rounded=0;orthogonalLoop=1;jettySize=auto;html=1;entryX=0;entryY=0.5;entryDx=0;entryDy=0;" parent="XU07n4T42WI_5-m4gutn-1" source="BcVM4QOwG3s_4vgD9s6S-15" target="XU07n4T42WI_5-m4gutn-66" edge="1">
                    <mxGeometry relative="1" as="geometry">
                        <Array as="points">
                            <mxPoint x="10" y="300"/>
                            <mxPoint x="10" y="-67"/>
                        </Array>
                    </mxGeometry>
                </mxCell>
                <mxCell id="BcVM4QOwG3s_4vgD9s6S-15" value="turn_left" style="whiteSpace=wrap;html=1;" parent="XU07n4T42WI_5-m4gutn-1" vertex="1">
                    <mxGeometry x="32" y="285" width="120" height="30" as="geometry"/>
                </mxCell>
                <mxCell id="BcVM4QOwG3s_4vgD9s6S-18" value="Yes" style="text;html=1;strokeColor=none;fillColor=none;align=center;verticalAlign=middle;whiteSpace=wrap;rounded=0;" parent="XU07n4T42WI_5-m4gutn-1" vertex="1">
                    <mxGeometry x="152" y="270" width="60" height="30" as="geometry"/>
                </mxCell>
                <mxCell id="BcVM4QOwG3s_4vgD9s6S-24" style="edgeStyle=orthogonalEdgeStyle;rounded=0;orthogonalLoop=1;jettySize=auto;html=1;entryX=0;entryY=0.5;entryDx=0;entryDy=0;" parent="XU07n4T42WI_5-m4gutn-1" source="BcVM4QOwG3s_4vgD9s6S-21" target="XU07n4T42WI_5-m4gutn-66" edge="1">
                    <mxGeometry relative="1" as="geometry">
                        <Array as="points">
                            <mxPoint x="10" y="405"/>
                            <mxPoint x="10" y="-67"/>
                        </Array>
                    </mxGeometry>
                </mxCell>
                <mxCell id="BcVM4QOwG3s_4vgD9s6S-21" value="turn_right" style="whiteSpace=wrap;html=1;" parent="XU07n4T42WI_5-m4gutn-1" vertex="1">
                    <mxGeometry x="32" y="390" width="120" height="30" as="geometry"/>
                </mxCell>
                <mxCell id="BcVM4QOwG3s_4vgD9s6S-23" value="No" style="text;html=1;strokeColor=none;fillColor=none;align=center;verticalAlign=middle;whiteSpace=wrap;rounded=0;" parent="XU07n4T42WI_5-m4gutn-1" vertex="1">
                    <mxGeometry x="320" y="350" width="60" height="30" as="geometry"/>
                </mxCell>
                <mxCell id="BcVM4QOwG3s_4vgD9s6S-29" value="" style="edgeStyle=orthogonalEdgeStyle;rounded=0;orthogonalLoop=1;jettySize=auto;html=1;" parent="XU07n4T42WI_5-m4gutn-1" source="BcVM4QOwG3s_4vgD9s6S-25" target="BcVM4QOwG3s_4vgD9s6S-28" edge="1">
                    <mxGeometry relative="1" as="geometry"/>
                </mxCell>
                <mxCell id="BcVM4QOwG3s_4vgD9s6S-33" value="" style="edgeStyle=orthogonalEdgeStyle;rounded=0;orthogonalLoop=1;jettySize=auto;html=1;" parent="XU07n4T42WI_5-m4gutn-1" source="BcVM4QOwG3s_4vgD9s6S-25" target="BcVM4QOwG3s_4vgD9s6S-32" edge="1">
                    <mxGeometry relative="1" as="geometry"/>
                </mxCell>
                <mxCell id="BcVM4QOwG3s_4vgD9s6S-25" value="if ((not canImoveLeft.resp) and (not canImoveRight.resp))" style="rhombus;whiteSpace=wrap;html=1;" parent="XU07n4T42WI_5-m4gutn-1" vertex="1">
                    <mxGeometry x="540" y="400" width="300" height="80" as="geometry"/>
                </mxCell>
                <mxCell id="BcVM4QOwG3s_4vgD9s6S-27" value="No" style="text;html=1;strokeColor=none;fillColor=none;align=center;verticalAlign=middle;whiteSpace=wrap;rounded=0;" parent="XU07n4T42WI_5-m4gutn-1" vertex="1">
                    <mxGeometry x="680" y="350" width="60" height="30" as="geometry"/>
                </mxCell>
                <mxCell id="BcVM4QOwG3s_4vgD9s6S-31" style="edgeStyle=orthogonalEdgeStyle;rounded=0;orthogonalLoop=1;jettySize=auto;html=1;entryX=0;entryY=0.5;entryDx=0;entryDy=0;" parent="XU07n4T42WI_5-m4gutn-1" source="BcVM4QOwG3s_4vgD9s6S-28" target="XU07n4T42WI_5-m4gutn-66" edge="1">
                    <mxGeometry relative="1" as="geometry">
                        <Array as="points">
                            <mxPoint x="10" y="440"/>
                            <mxPoint x="10" y="-67"/>
                        </Array>
                    </mxGeometry>
                </mxCell>
                <mxCell id="BcVM4QOwG3s_4vgD9s6S-28" value="look_back" style="whiteSpace=wrap;html=1;" parent="XU07n4T42WI_5-m4gutn-1" vertex="1">
                    <mxGeometry x="354" y="425" width="120" height="30" as="geometry"/>
                </mxCell>
                <mxCell id="BcVM4QOwG3s_4vgD9s6S-30" value="Yes" style="text;html=1;strokeColor=none;fillColor=none;align=center;verticalAlign=middle;whiteSpace=wrap;rounded=0;" parent="XU07n4T42WI_5-m4gutn-1" vertex="1">
                    <mxGeometry x="480" y="410" width="60" height="30" as="geometry"/>
                </mxCell>
                <mxCell id="BcVM4QOwG3s_4vgD9s6S-36" style="edgeStyle=orthogonalEdgeStyle;rounded=0;orthogonalLoop=1;jettySize=auto;html=1;entryX=1;entryY=0.5;entryDx=0;entryDy=0;" parent="XU07n4T42WI_5-m4gutn-1" source="BcVM4QOwG3s_4vgD9s6S-32" target="BcVM4QOwG3s_4vgD9s6S-35" edge="1">
                    <mxGeometry relative="1" as="geometry"/>
                </mxCell>
                <mxCell id="BcVM4QOwG3s_4vgD9s6S-43" style="edgeStyle=orthogonalEdgeStyle;rounded=0;orthogonalLoop=1;jettySize=auto;html=1;entryX=1;entryY=0.5;entryDx=0;entryDy=0;" parent="XU07n4T42WI_5-m4gutn-1" source="BcVM4QOwG3s_4vgD9s6S-32" target="BcVM4QOwG3s_4vgD9s6S-42" edge="1">
                    <mxGeometry relative="1" as="geometry">
                        <Array as="points">
                            <mxPoint x="690" y="635"/>
                        </Array>
                    </mxGeometry>
                </mxCell>
                <mxCell id="BcVM4QOwG3s_4vgD9s6S-32" value="&amp;nbsp;if (canImoveLeft.resp)" style="rhombus;whiteSpace=wrap;html=1;" parent="XU07n4T42WI_5-m4gutn-1" vertex="1">
                    <mxGeometry x="600" y="530" width="180" height="80" as="geometry"/>
                </mxCell>
                <mxCell id="BcVM4QOwG3s_4vgD9s6S-34" value="No" style="text;html=1;strokeColor=none;fillColor=none;align=center;verticalAlign=middle;whiteSpace=wrap;rounded=0;" parent="XU07n4T42WI_5-m4gutn-1" vertex="1">
                    <mxGeometry x="680" y="490" width="60" height="30" as="geometry"/>
                </mxCell>
                <mxCell id="BcVM4QOwG3s_4vgD9s6S-38" style="edgeStyle=orthogonalEdgeStyle;rounded=0;orthogonalLoop=1;jettySize=auto;html=1;entryX=0;entryY=0.5;entryDx=0;entryDy=0;" parent="XU07n4T42WI_5-m4gutn-1" source="BcVM4QOwG3s_4vgD9s6S-35" target="XU07n4T42WI_5-m4gutn-66" edge="1">
                    <mxGeometry relative="1" as="geometry">
                        <Array as="points">
                            <mxPoint x="10" y="570"/>
                            <mxPoint x="10" y="-67"/>
                        </Array>
                    </mxGeometry>
                </mxCell>
                <mxCell id="BcVM4QOwG3s_4vgD9s6S-35" value="turn_left" style="whiteSpace=wrap;html=1;" parent="XU07n4T42WI_5-m4gutn-1" vertex="1">
                    <mxGeometry x="354" y="555" width="120" height="30" as="geometry"/>
                </mxCell>
                <mxCell id="BcVM4QOwG3s_4vgD9s6S-37" value="Yes" style="text;html=1;strokeColor=none;fillColor=none;align=center;verticalAlign=middle;whiteSpace=wrap;rounded=0;" parent="XU07n4T42WI_5-m4gutn-1" vertex="1">
                    <mxGeometry x="510" y="540" width="60" height="30" as="geometry"/>
                </mxCell>
                <mxCell id="BcVM4QOwG3s_4vgD9s6S-41" value="No" style="text;html=1;strokeColor=none;fillColor=none;align=center;verticalAlign=middle;whiteSpace=wrap;rounded=0;" parent="XU07n4T42WI_5-m4gutn-1" vertex="1">
                    <mxGeometry x="690" y="610" width="60" height="30" as="geometry"/>
                </mxCell>
                <mxCell id="BcVM4QOwG3s_4vgD9s6S-45" style="edgeStyle=orthogonalEdgeStyle;rounded=0;orthogonalLoop=1;jettySize=auto;html=1;entryX=0;entryY=0.5;entryDx=0;entryDy=0;" parent="XU07n4T42WI_5-m4gutn-1" source="BcVM4QOwG3s_4vgD9s6S-42" target="XU07n4T42WI_5-m4gutn-66" edge="1">
                    <mxGeometry relative="1" as="geometry">
                        <Array as="points">
                            <mxPoint x="10" y="635"/>
                            <mxPoint x="10" y="-67"/>
                        </Array>
                    </mxGeometry>
                </mxCell>
                <mxCell id="BcVM4QOwG3s_4vgD9s6S-42" value="turn_right" style="whiteSpace=wrap;html=1;" parent="XU07n4T42WI_5-m4gutn-1" vertex="1">
                    <mxGeometry x="354" y="620" width="120" height="30" as="geometry"/>
                </mxCell>
                <mxCell id="BcVM4QOwG3s_4vgD9s6S-44" style="edgeStyle=orthogonalEdgeStyle;rounded=0;orthogonalLoop=1;jettySize=auto;html=1;exitX=0.5;exitY=1;exitDx=0;exitDy=0;" parent="XU07n4T42WI_5-m4gutn-1" source="BcVM4QOwG3s_4vgD9s6S-41" target="BcVM4QOwG3s_4vgD9s6S-41" edge="1">
                    <mxGeometry relative="1" as="geometry"/>
                </mxCell>
            </root>
        </mxGraphModel>
    </diagram>
    <diagram id="QXcaN9D6eC4ClAJw9AEW" name="can_i_move_forward">
        <mxGraphModel dx="1038" dy="1302" grid="1" gridSize="10" guides="1" tooltips="1" connect="1" arrows="1" fold="1" page="1" pageScale="1" pageWidth="850" pageHeight="1100" math="0" shadow="0">
            <root>
                <mxCell id="xD_rSEwZE9QQKlkNCO7G-0"/>
                <mxCell id="xD_rSEwZE9QQKlkNCO7G-1" parent="xD_rSEwZE9QQKlkNCO7G-0"/>
                <mxCell id="M4Nt14Vw_uTWiadT-js_-2" value="" style="edgeStyle=orthogonalEdgeStyle;rounded=0;orthogonalLoop=1;jettySize=auto;html=1;" parent="xD_rSEwZE9QQKlkNCO7G-1" source="M4Nt14Vw_uTWiadT-js_-0" target="M4Nt14Vw_uTWiadT-js_-1" edge="1">
                    <mxGeometry relative="1" as="geometry"/>
                </mxCell>
                <mxCell id="M4Nt14Vw_uTWiadT-js_-0" value="can_i_move_forward" style="ellipse;whiteSpace=wrap;html=1;" parent="xD_rSEwZE9QQKlkNCO7G-1" vertex="1">
                    <mxGeometry x="310" y="50" width="150" height="80" as="geometry"/>
                </mxCell>
                <mxCell id="M4Nt14Vw_uTWiadT-js_-4" value="" style="edgeStyle=orthogonalEdgeStyle;rounded=0;orthogonalLoop=1;jettySize=auto;html=1;" parent="xD_rSEwZE9QQKlkNCO7G-1" source="M4Nt14Vw_uTWiadT-js_-1" target="M4Nt14Vw_uTWiadT-js_-3" edge="1">
                    <mxGeometry relative="1" as="geometry"/>
                </mxCell>
                <mxCell id="M4Nt14Vw_uTWiadT-js_-1" value="long cms = cal_distance();" style="whiteSpace=wrap;html=1;" parent="xD_rSEwZE9QQKlkNCO7G-1" vertex="1">
                    <mxGeometry x="292.5" y="161" width="185" height="30" as="geometry"/>
                </mxCell>
                <mxCell id="M4Nt14Vw_uTWiadT-js_-6" value="" style="edgeStyle=orthogonalEdgeStyle;rounded=0;orthogonalLoop=1;jettySize=auto;html=1;" parent="xD_rSEwZE9QQKlkNCO7G-1" source="M4Nt14Vw_uTWiadT-js_-3" target="M4Nt14Vw_uTWiadT-js_-5" edge="1">
                    <mxGeometry relative="1" as="geometry"/>
                </mxCell>
                <mxCell id="M4Nt14Vw_uTWiadT-js_-3" value="&lt;span&gt;outcome&amp;nbsp; forward = {false, cms};&lt;/span&gt;" style="whiteSpace=wrap;html=1;" parent="xD_rSEwZE9QQKlkNCO7G-1" vertex="1">
                    <mxGeometry x="292.5" y="221" width="185" height="30" as="geometry"/>
                </mxCell>
                <mxCell id="M4Nt14Vw_uTWiadT-js_-11" value="" style="edgeStyle=orthogonalEdgeStyle;rounded=0;orthogonalLoop=1;jettySize=auto;html=1;" parent="xD_rSEwZE9QQKlkNCO7G-1" source="M4Nt14Vw_uTWiadT-js_-5" target="M4Nt14Vw_uTWiadT-js_-10" edge="1">
                    <mxGeometry relative="1" as="geometry"/>
                </mxCell>
                <mxCell id="M4Nt14Vw_uTWiadT-js_-20" style="edgeStyle=orthogonalEdgeStyle;rounded=0;orthogonalLoop=1;jettySize=auto;html=1;entryX=1;entryY=0.5;entryDx=0;entryDy=0;" parent="xD_rSEwZE9QQKlkNCO7G-1" source="M4Nt14Vw_uTWiadT-js_-5" target="M4Nt14Vw_uTWiadT-js_-16" edge="1">
                    <mxGeometry relative="1" as="geometry">
                        <Array as="points">
                            <mxPoint x="570" y="340"/>
                            <mxPoint x="570" y="535"/>
                        </Array>
                    </mxGeometry>
                </mxCell>
                <mxCell id="M4Nt14Vw_uTWiadT-js_-5" value="if (cms &gt; 50 and cms &lt; 1200)" style="rhombus;whiteSpace=wrap;html=1;" parent="xD_rSEwZE9QQKlkNCO7G-1" vertex="1">
                    <mxGeometry x="260" y="300" width="250" height="80" as="geometry"/>
                </mxCell>
                <mxCell id="M4Nt14Vw_uTWiadT-js_-8" value="return forward;" style="whiteSpace=wrap;html=1;" parent="xD_rSEwZE9QQKlkNCO7G-1" vertex="1">
                    <mxGeometry x="325" y="690" width="120" height="30" as="geometry"/>
                </mxCell>
                <mxCell id="M4Nt14Vw_uTWiadT-js_-19" value="" style="edgeStyle=orthogonalEdgeStyle;rounded=0;orthogonalLoop=1;jettySize=auto;html=1;" parent="xD_rSEwZE9QQKlkNCO7G-1" source="M4Nt14Vw_uTWiadT-js_-10" target="M4Nt14Vw_uTWiadT-js_-16" edge="1">
                    <mxGeometry relative="1" as="geometry"/>
                </mxCell>
                <mxCell id="M4Nt14Vw_uTWiadT-js_-10" value="forward = {true, cms};" style="whiteSpace=wrap;html=1;" parent="xD_rSEwZE9QQKlkNCO7G-1" vertex="1">
                    <mxGeometry x="297.5" y="430" width="175" height="30" as="geometry"/>
                </mxCell>
                <mxCell id="M4Nt14Vw_uTWiadT-js_-12" value="Yes" style="text;html=1;strokeColor=none;fillColor=none;align=center;verticalAlign=middle;whiteSpace=wrap;rounded=0;" parent="xD_rSEwZE9QQKlkNCO7G-1" vertex="1">
                    <mxGeometry x="370" y="390" width="60" height="30" as="geometry"/>
                </mxCell>
                <mxCell id="M4Nt14Vw_uTWiadT-js_-15" value="No" style="text;html=1;strokeColor=none;fillColor=none;align=center;verticalAlign=middle;whiteSpace=wrap;rounded=0;" parent="xD_rSEwZE9QQKlkNCO7G-1" vertex="1">
                    <mxGeometry x="510" y="320" width="60" height="30" as="geometry"/>
                </mxCell>
                <mxCell id="M4Nt14Vw_uTWiadT-js_-22" value="" style="edgeStyle=orthogonalEdgeStyle;rounded=0;orthogonalLoop=1;jettySize=auto;html=1;" parent="xD_rSEwZE9QQKlkNCO7G-1" source="M4Nt14Vw_uTWiadT-js_-16" target="M4Nt14Vw_uTWiadT-js_-21" edge="1">
                    <mxGeometry relative="1" as="geometry"/>
                </mxCell>
                <mxCell id="M4Nt14Vw_uTWiadT-js_-16" value="Serial.print(&quot;Can i move forward?&quot;);" style="whiteSpace=wrap;html=1;" parent="xD_rSEwZE9QQKlkNCO7G-1" vertex="1">
                    <mxGeometry x="283.75" y="520" width="202.5" height="30" as="geometry"/>
                </mxCell>
                <mxCell id="M4Nt14Vw_uTWiadT-js_-24" value="" style="edgeStyle=orthogonalEdgeStyle;rounded=0;orthogonalLoop=1;jettySize=auto;html=1;" parent="xD_rSEwZE9QQKlkNCO7G-1" source="M4Nt14Vw_uTWiadT-js_-21" target="M4Nt14Vw_uTWiadT-js_-23" edge="1">
                    <mxGeometry relative="1" as="geometry"/>
                </mxCell>
                <mxCell id="M4Nt14Vw_uTWiadT-js_-26" value="" style="edgeStyle=orthogonalEdgeStyle;rounded=0;orthogonalLoop=1;jettySize=auto;html=1;" parent="xD_rSEwZE9QQKlkNCO7G-1" source="M4Nt14Vw_uTWiadT-js_-21" target="M4Nt14Vw_uTWiadT-js_-25" edge="1">
                    <mxGeometry relative="1" as="geometry"/>
                </mxCell>
                <mxCell id="M4Nt14Vw_uTWiadT-js_-21" value="if (forward.resp)" style="rhombus;whiteSpace=wrap;html=1;" parent="xD_rSEwZE9QQKlkNCO7G-1" vertex="1">
                    <mxGeometry x="330" y="590" width="110" height="80" as="geometry"/>
                </mxCell>
                <mxCell id="M4Nt14Vw_uTWiadT-js_-27" style="edgeStyle=orthogonalEdgeStyle;rounded=0;orthogonalLoop=1;jettySize=auto;html=1;entryX=0;entryY=0.5;entryDx=0;entryDy=0;" parent="xD_rSEwZE9QQKlkNCO7G-1" source="M4Nt14Vw_uTWiadT-js_-23" target="M4Nt14Vw_uTWiadT-js_-8" edge="1">
                    <mxGeometry relative="1" as="geometry">
                        <Array as="points">
                            <mxPoint x="200" y="705"/>
                        </Array>
                    </mxGeometry>
                </mxCell>
                <mxCell id="M4Nt14Vw_uTWiadT-js_-23" value="Serial.print(&quot; Yes&quot;);" style="whiteSpace=wrap;html=1;" parent="xD_rSEwZE9QQKlkNCO7G-1" vertex="1">
                    <mxGeometry x="135" y="615" width="120" height="30" as="geometry"/>
                </mxCell>
                <mxCell id="M4Nt14Vw_uTWiadT-js_-29" style="edgeStyle=orthogonalEdgeStyle;rounded=0;orthogonalLoop=1;jettySize=auto;html=1;entryX=1;entryY=0.5;entryDx=0;entryDy=0;" parent="xD_rSEwZE9QQKlkNCO7G-1" source="M4Nt14Vw_uTWiadT-js_-25" target="M4Nt14Vw_uTWiadT-js_-8" edge="1">
                    <mxGeometry relative="1" as="geometry">
                        <Array as="points">
                            <mxPoint x="575" y="705"/>
                        </Array>
                    </mxGeometry>
                </mxCell>
                <mxCell id="M4Nt14Vw_uTWiadT-js_-25" value="Serial.print(&quot; No&quot;);" style="whiteSpace=wrap;html=1;" parent="xD_rSEwZE9QQKlkNCO7G-1" vertex="1">
                    <mxGeometry x="520" y="615" width="120" height="30" as="geometry"/>
                </mxCell>
                <mxCell id="M4Nt14Vw_uTWiadT-js_-30" value="Yes" style="text;html=1;strokeColor=none;fillColor=none;align=center;verticalAlign=middle;whiteSpace=wrap;rounded=0;" parent="xD_rSEwZE9QQKlkNCO7G-1" vertex="1">
                    <mxGeometry x="270" y="610" width="60" height="30" as="geometry"/>
                </mxCell>
                <mxCell id="M4Nt14Vw_uTWiadT-js_-31" value="No" style="text;html=1;strokeColor=none;fillColor=none;align=center;verticalAlign=middle;whiteSpace=wrap;rounded=0;" parent="xD_rSEwZE9QQKlkNCO7G-1" vertex="1">
                    <mxGeometry x="440" y="610" width="60" height="30" as="geometry"/>
                </mxCell>
            </root>
        </mxGraphModel>
    </diagram>
    <diagram name="can_i_move_left" id="dB9H_kyGr1q92UvwQX9d">
        <mxGraphModel dx="1038" dy="1302" grid="1" gridSize="10" guides="1" tooltips="1" connect="1" arrows="1" fold="1" page="1" pageScale="1" pageWidth="850" pageHeight="1100" math="0" shadow="0">
            <root>
                <mxCell id="4Dkn8Dz4_RbDz0szLWG3-0"/>
                <mxCell id="4Dkn8Dz4_RbDz0szLWG3-1" parent="4Dkn8Dz4_RbDz0szLWG3-0"/>
                <mxCell id="4Dkn8Dz4_RbDz0szLWG3-2" value="" style="edgeStyle=orthogonalEdgeStyle;rounded=0;orthogonalLoop=1;jettySize=auto;html=1;" parent="4Dkn8Dz4_RbDz0szLWG3-1" source="4Dkn8Dz4_RbDz0szLWG3-3" target="4Dkn8Dz4_RbDz0szLWG3-5" edge="1">
                    <mxGeometry relative="1" as="geometry"/>
                </mxCell>
                <mxCell id="4Dkn8Dz4_RbDz0szLWG3-3" value="can_i_move_left" style="ellipse;whiteSpace=wrap;html=1;" parent="4Dkn8Dz4_RbDz0szLWG3-1" vertex="1">
                    <mxGeometry x="310" y="50" width="150" height="80" as="geometry"/>
                </mxCell>
                <mxCell id="4Dkn8Dz4_RbDz0szLWG3-4" value="" style="edgeStyle=orthogonalEdgeStyle;rounded=0;orthogonalLoop=1;jettySize=auto;html=1;" parent="4Dkn8Dz4_RbDz0szLWG3-1" source="4Dkn8Dz4_RbDz0szLWG3-5" target="4Dkn8Dz4_RbDz0szLWG3-7" edge="1">
                    <mxGeometry relative="1" as="geometry"/>
                </mxCell>
                <mxCell id="4Dkn8Dz4_RbDz0szLWG3-5" value="look_left(debug);" style="whiteSpace=wrap;html=1;" parent="4Dkn8Dz4_RbDz0szLWG3-1" vertex="1">
                    <mxGeometry x="292.5" y="161" width="185" height="30" as="geometry"/>
                </mxCell>
                <mxCell id="4Dkn8Dz4_RbDz0szLWG3-28" value="" style="edgeStyle=orthogonalEdgeStyle;rounded=0;orthogonalLoop=1;jettySize=auto;html=1;" parent="4Dkn8Dz4_RbDz0szLWG3-1" source="4Dkn8Dz4_RbDz0szLWG3-7" target="4Dkn8Dz4_RbDz0szLWG3-27" edge="1">
                    <mxGeometry relative="1" as="geometry"/>
                </mxCell>
                <mxCell id="4Dkn8Dz4_RbDz0szLWG3-7" value="stop_moving(debug, 100);" style="whiteSpace=wrap;html=1;" parent="4Dkn8Dz4_RbDz0szLWG3-1" vertex="1">
                    <mxGeometry x="292.5" y="221" width="185" height="30" as="geometry"/>
                </mxCell>
                <mxCell id="4Dkn8Dz4_RbDz0szLWG3-8" value="" style="edgeStyle=orthogonalEdgeStyle;rounded=0;orthogonalLoop=1;jettySize=auto;html=1;" parent="4Dkn8Dz4_RbDz0szLWG3-1" source="4Dkn8Dz4_RbDz0szLWG3-10" target="4Dkn8Dz4_RbDz0szLWG3-13" edge="1">
                    <mxGeometry relative="1" as="geometry"/>
                </mxCell>
                <mxCell id="4Dkn8Dz4_RbDz0szLWG3-9" style="edgeStyle=orthogonalEdgeStyle;rounded=0;orthogonalLoop=1;jettySize=auto;html=1;entryX=1;entryY=0.5;entryDx=0;entryDy=0;" parent="4Dkn8Dz4_RbDz0szLWG3-1" source="4Dkn8Dz4_RbDz0szLWG3-10" target="4Dkn8Dz4_RbDz0szLWG3-17" edge="1">
                    <mxGeometry relative="1" as="geometry">
                        <Array as="points">
                            <mxPoint x="570.5" y="579"/>
                            <mxPoint x="570.5" y="774"/>
                        </Array>
                    </mxGeometry>
                </mxCell>
                <mxCell id="4Dkn8Dz4_RbDz0szLWG3-10" value="if (cms &gt; 50 and cms &lt; 1200)" style="rhombus;whiteSpace=wrap;html=1;" parent="4Dkn8Dz4_RbDz0szLWG3-1" vertex="1">
                    <mxGeometry x="260.5" y="539" width="250" height="80" as="geometry"/>
                </mxCell>
                <mxCell id="4Dkn8Dz4_RbDz0szLWG3-11" value="return left;" style="whiteSpace=wrap;html=1;" parent="4Dkn8Dz4_RbDz0szLWG3-1" vertex="1">
                    <mxGeometry x="325.5" y="929" width="120" height="30" as="geometry"/>
                </mxCell>
                <mxCell id="4Dkn8Dz4_RbDz0szLWG3-12" value="" style="edgeStyle=orthogonalEdgeStyle;rounded=0;orthogonalLoop=1;jettySize=auto;html=1;" parent="4Dkn8Dz4_RbDz0szLWG3-1" source="4Dkn8Dz4_RbDz0szLWG3-13" target="4Dkn8Dz4_RbDz0szLWG3-17" edge="1">
                    <mxGeometry relative="1" as="geometry"/>
                </mxCell>
                <mxCell id="4Dkn8Dz4_RbDz0szLWG3-13" value="left = {true, cms};" style="whiteSpace=wrap;html=1;" parent="4Dkn8Dz4_RbDz0szLWG3-1" vertex="1">
                    <mxGeometry x="298" y="669" width="175" height="30" as="geometry"/>
                </mxCell>
                <mxCell id="4Dkn8Dz4_RbDz0szLWG3-14" value="Yes" style="text;html=1;strokeColor=none;fillColor=none;align=center;verticalAlign=middle;whiteSpace=wrap;rounded=0;" parent="4Dkn8Dz4_RbDz0szLWG3-1" vertex="1">
                    <mxGeometry x="370.5" y="629" width="60" height="30" as="geometry"/>
                </mxCell>
                <mxCell id="4Dkn8Dz4_RbDz0szLWG3-15" value="No" style="text;html=1;strokeColor=none;fillColor=none;align=center;verticalAlign=middle;whiteSpace=wrap;rounded=0;" parent="4Dkn8Dz4_RbDz0szLWG3-1" vertex="1">
                    <mxGeometry x="510.5" y="559" width="60" height="30" as="geometry"/>
                </mxCell>
                <mxCell id="4Dkn8Dz4_RbDz0szLWG3-16" value="" style="edgeStyle=orthogonalEdgeStyle;rounded=0;orthogonalLoop=1;jettySize=auto;html=1;" parent="4Dkn8Dz4_RbDz0szLWG3-1" source="4Dkn8Dz4_RbDz0szLWG3-17" target="4Dkn8Dz4_RbDz0szLWG3-20" edge="1">
                    <mxGeometry relative="1" as="geometry"/>
                </mxCell>
                <mxCell id="4Dkn8Dz4_RbDz0szLWG3-17" value="Serial.print(&quot;Can i move forward on the left?&quot;);" style="whiteSpace=wrap;html=1;" parent="4Dkn8Dz4_RbDz0szLWG3-1" vertex="1">
                    <mxGeometry x="256.18" y="759" width="258.63" height="30" as="geometry"/>
                </mxCell>
                <mxCell id="4Dkn8Dz4_RbDz0szLWG3-18" value="" style="edgeStyle=orthogonalEdgeStyle;rounded=0;orthogonalLoop=1;jettySize=auto;html=1;" parent="4Dkn8Dz4_RbDz0szLWG3-1" source="4Dkn8Dz4_RbDz0szLWG3-20" target="4Dkn8Dz4_RbDz0szLWG3-22" edge="1">
                    <mxGeometry relative="1" as="geometry"/>
                </mxCell>
                <mxCell id="4Dkn8Dz4_RbDz0szLWG3-19" value="" style="edgeStyle=orthogonalEdgeStyle;rounded=0;orthogonalLoop=1;jettySize=auto;html=1;" parent="4Dkn8Dz4_RbDz0szLWG3-1" source="4Dkn8Dz4_RbDz0szLWG3-20" target="4Dkn8Dz4_RbDz0szLWG3-24" edge="1">
                    <mxGeometry relative="1" as="geometry"/>
                </mxCell>
                <mxCell id="4Dkn8Dz4_RbDz0szLWG3-20" value="if (left.resp)" style="rhombus;whiteSpace=wrap;html=1;" parent="4Dkn8Dz4_RbDz0szLWG3-1" vertex="1">
                    <mxGeometry x="330.5" y="829" width="110" height="80" as="geometry"/>
                </mxCell>
                <mxCell id="4Dkn8Dz4_RbDz0szLWG3-21" style="edgeStyle=orthogonalEdgeStyle;rounded=0;orthogonalLoop=1;jettySize=auto;html=1;entryX=0;entryY=0.5;entryDx=0;entryDy=0;" parent="4Dkn8Dz4_RbDz0szLWG3-1" source="4Dkn8Dz4_RbDz0szLWG3-22" target="4Dkn8Dz4_RbDz0szLWG3-11" edge="1">
                    <mxGeometry relative="1" as="geometry">
                        <Array as="points">
                            <mxPoint x="200.5" y="944"/>
                        </Array>
                    </mxGeometry>
                </mxCell>
                <mxCell id="4Dkn8Dz4_RbDz0szLWG3-22" value="Serial.print(&quot; Yes&quot;);" style="whiteSpace=wrap;html=1;" parent="4Dkn8Dz4_RbDz0szLWG3-1" vertex="1">
                    <mxGeometry x="135.5" y="854" width="120" height="30" as="geometry"/>
                </mxCell>
                <mxCell id="4Dkn8Dz4_RbDz0szLWG3-23" style="edgeStyle=orthogonalEdgeStyle;rounded=0;orthogonalLoop=1;jettySize=auto;html=1;entryX=1;entryY=0.5;entryDx=0;entryDy=0;" parent="4Dkn8Dz4_RbDz0szLWG3-1" source="4Dkn8Dz4_RbDz0szLWG3-24" target="4Dkn8Dz4_RbDz0szLWG3-11" edge="1">
                    <mxGeometry relative="1" as="geometry">
                        <Array as="points">
                            <mxPoint x="575.5" y="944"/>
                        </Array>
                    </mxGeometry>
                </mxCell>
                <mxCell id="4Dkn8Dz4_RbDz0szLWG3-24" value="Serial.print(&quot; No&quot;);" style="whiteSpace=wrap;html=1;" parent="4Dkn8Dz4_RbDz0szLWG3-1" vertex="1">
                    <mxGeometry x="520.5" y="854" width="120" height="30" as="geometry"/>
                </mxCell>
                <mxCell id="4Dkn8Dz4_RbDz0szLWG3-25" value="Yes" style="text;html=1;strokeColor=none;fillColor=none;align=center;verticalAlign=middle;whiteSpace=wrap;rounded=0;" parent="4Dkn8Dz4_RbDz0szLWG3-1" vertex="1">
                    <mxGeometry x="270.5" y="849" width="60" height="30" as="geometry"/>
                </mxCell>
                <mxCell id="4Dkn8Dz4_RbDz0szLWG3-26" value="No" style="text;html=1;strokeColor=none;fillColor=none;align=center;verticalAlign=middle;whiteSpace=wrap;rounded=0;" parent="4Dkn8Dz4_RbDz0szLWG3-1" vertex="1">
                    <mxGeometry x="440.5" y="849" width="60" height="30" as="geometry"/>
                </mxCell>
                <mxCell id="4Dkn8Dz4_RbDz0szLWG3-30" value="" style="edgeStyle=orthogonalEdgeStyle;rounded=0;orthogonalLoop=1;jettySize=auto;html=1;" parent="4Dkn8Dz4_RbDz0szLWG3-1" source="4Dkn8Dz4_RbDz0szLWG3-27" target="4Dkn8Dz4_RbDz0szLWG3-29" edge="1">
                    <mxGeometry relative="1" as="geometry"/>
                </mxCell>
                <mxCell id="4Dkn8Dz4_RbDz0szLWG3-27" value="long cms = cal_distance();" style="whiteSpace=wrap;html=1;" parent="4Dkn8Dz4_RbDz0szLWG3-1" vertex="1">
                    <mxGeometry x="292.5" y="280" width="185" height="30" as="geometry"/>
                </mxCell>
                <mxCell id="4Dkn8Dz4_RbDz0szLWG3-32" value="" style="edgeStyle=orthogonalEdgeStyle;rounded=0;orthogonalLoop=1;jettySize=auto;html=1;" parent="4Dkn8Dz4_RbDz0szLWG3-1" source="4Dkn8Dz4_RbDz0szLWG3-29" target="4Dkn8Dz4_RbDz0szLWG3-31" edge="1">
                    <mxGeometry relative="1" as="geometry"/>
                </mxCell>
                <mxCell id="4Dkn8Dz4_RbDz0szLWG3-29" value="outcome&amp;nbsp; left = {false, cms};" style="whiteSpace=wrap;html=1;" parent="4Dkn8Dz4_RbDz0szLWG3-1" vertex="1">
                    <mxGeometry x="292.5" y="341" width="185" height="30" as="geometry"/>
                </mxCell>
                <mxCell id="4Dkn8Dz4_RbDz0szLWG3-35" value="" style="edgeStyle=orthogonalEdgeStyle;rounded=0;orthogonalLoop=1;jettySize=auto;html=1;" parent="4Dkn8Dz4_RbDz0szLWG3-1" source="4Dkn8Dz4_RbDz0szLWG3-31" target="4Dkn8Dz4_RbDz0szLWG3-34" edge="1">
                    <mxGeometry relative="1" as="geometry"/>
                </mxCell>
                <mxCell id="4Dkn8Dz4_RbDz0szLWG3-31" value="look_right(debug);" style="whiteSpace=wrap;html=1;" parent="4Dkn8Dz4_RbDz0szLWG3-1" vertex="1">
                    <mxGeometry x="292.5" y="400" width="185" height="30" as="geometry"/>
                </mxCell>
                <mxCell id="wusDk6m2c21OW7j2KE3a-0" style="edgeStyle=orthogonalEdgeStyle;rounded=0;orthogonalLoop=1;jettySize=auto;html=1;entryX=0.5;entryY=0;entryDx=0;entryDy=0;" parent="4Dkn8Dz4_RbDz0szLWG3-1" source="4Dkn8Dz4_RbDz0szLWG3-34" target="4Dkn8Dz4_RbDz0szLWG3-10" edge="1">
                    <mxGeometry relative="1" as="geometry"/>
                </mxCell>
                <mxCell id="4Dkn8Dz4_RbDz0szLWG3-34" value="stop_moving(debug, 100);" style="whiteSpace=wrap;html=1;" parent="4Dkn8Dz4_RbDz0szLWG3-1" vertex="1">
                    <mxGeometry x="292.5" y="460" width="185" height="30" as="geometry"/>
                </mxCell>
            </root>
        </mxGraphModel>
    </diagram>
    <diagram name="can_i_move_right" id="HVKDfPzBIzbUzQ1gVIxG">
        <mxGraphModel dx="1038" dy="1302" grid="1" gridSize="10" guides="1" tooltips="1" connect="1" arrows="1" fold="1" page="1" pageScale="1" pageWidth="850" pageHeight="1100" math="0" shadow="0">
            <root>
                <mxCell id="NiolvEhcDzaQSrsbmuZp-0"/>
                <mxCell id="NiolvEhcDzaQSrsbmuZp-1" parent="NiolvEhcDzaQSrsbmuZp-0"/>
                <mxCell id="NiolvEhcDzaQSrsbmuZp-2" value="" style="edgeStyle=orthogonalEdgeStyle;rounded=0;orthogonalLoop=1;jettySize=auto;html=1;" parent="NiolvEhcDzaQSrsbmuZp-1" source="NiolvEhcDzaQSrsbmuZp-3" target="NiolvEhcDzaQSrsbmuZp-5" edge="1">
                    <mxGeometry relative="1" as="geometry"/>
                </mxCell>
                <mxCell id="NiolvEhcDzaQSrsbmuZp-3" value="can_i_move_right" style="ellipse;whiteSpace=wrap;html=1;" parent="NiolvEhcDzaQSrsbmuZp-1" vertex="1">
                    <mxGeometry x="310" y="50" width="150" height="80" as="geometry"/>
                </mxCell>
                <mxCell id="NiolvEhcDzaQSrsbmuZp-4" value="" style="edgeStyle=orthogonalEdgeStyle;rounded=0;orthogonalLoop=1;jettySize=auto;html=1;" parent="NiolvEhcDzaQSrsbmuZp-1" source="NiolvEhcDzaQSrsbmuZp-5" target="NiolvEhcDzaQSrsbmuZp-7" edge="1">
                    <mxGeometry relative="1" as="geometry"/>
                </mxCell>
                <mxCell id="NiolvEhcDzaQSrsbmuZp-5" value="look_right(debug);" style="whiteSpace=wrap;html=1;" parent="NiolvEhcDzaQSrsbmuZp-1" vertex="1">
                    <mxGeometry x="292.5" y="161" width="185" height="30" as="geometry"/>
                </mxCell>
                <mxCell id="NiolvEhcDzaQSrsbmuZp-6" value="" style="edgeStyle=orthogonalEdgeStyle;rounded=0;orthogonalLoop=1;jettySize=auto;html=1;" parent="NiolvEhcDzaQSrsbmuZp-1" source="NiolvEhcDzaQSrsbmuZp-7" target="NiolvEhcDzaQSrsbmuZp-28" edge="1">
                    <mxGeometry relative="1" as="geometry"/>
                </mxCell>
                <mxCell id="NiolvEhcDzaQSrsbmuZp-7" value="stop_moving(debug, 100);" style="whiteSpace=wrap;html=1;" parent="NiolvEhcDzaQSrsbmuZp-1" vertex="1">
                    <mxGeometry x="292.5" y="221" width="185" height="30" as="geometry"/>
                </mxCell>
                <mxCell id="NiolvEhcDzaQSrsbmuZp-8" value="" style="edgeStyle=orthogonalEdgeStyle;rounded=0;orthogonalLoop=1;jettySize=auto;html=1;" parent="NiolvEhcDzaQSrsbmuZp-1" source="NiolvEhcDzaQSrsbmuZp-10" target="NiolvEhcDzaQSrsbmuZp-13" edge="1">
                    <mxGeometry relative="1" as="geometry"/>
                </mxCell>
                <mxCell id="NiolvEhcDzaQSrsbmuZp-9" style="edgeStyle=orthogonalEdgeStyle;rounded=0;orthogonalLoop=1;jettySize=auto;html=1;entryX=1;entryY=0.5;entryDx=0;entryDy=0;" parent="NiolvEhcDzaQSrsbmuZp-1" source="NiolvEhcDzaQSrsbmuZp-10" target="NiolvEhcDzaQSrsbmuZp-17" edge="1">
                    <mxGeometry relative="1" as="geometry">
                        <Array as="points">
                            <mxPoint x="570.5" y="579"/>
                            <mxPoint x="570.5" y="774"/>
                        </Array>
                    </mxGeometry>
                </mxCell>
                <mxCell id="NiolvEhcDzaQSrsbmuZp-10" value="if (cms &gt; 50 and cms &lt; 1200)" style="rhombus;whiteSpace=wrap;html=1;" parent="NiolvEhcDzaQSrsbmuZp-1" vertex="1">
                    <mxGeometry x="260.5" y="539" width="250" height="80" as="geometry"/>
                </mxCell>
                <mxCell id="NiolvEhcDzaQSrsbmuZp-11" value="return right;" style="whiteSpace=wrap;html=1;" parent="NiolvEhcDzaQSrsbmuZp-1" vertex="1">
                    <mxGeometry x="325.5" y="929" width="120" height="30" as="geometry"/>
                </mxCell>
                <mxCell id="NiolvEhcDzaQSrsbmuZp-12" value="" style="edgeStyle=orthogonalEdgeStyle;rounded=0;orthogonalLoop=1;jettySize=auto;html=1;" parent="NiolvEhcDzaQSrsbmuZp-1" source="NiolvEhcDzaQSrsbmuZp-13" target="NiolvEhcDzaQSrsbmuZp-17" edge="1">
                    <mxGeometry relative="1" as="geometry"/>
                </mxCell>
                <mxCell id="NiolvEhcDzaQSrsbmuZp-13" value="right = {true, cms};" style="whiteSpace=wrap;html=1;" parent="NiolvEhcDzaQSrsbmuZp-1" vertex="1">
                    <mxGeometry x="298" y="669" width="175" height="30" as="geometry"/>
                </mxCell>
                <mxCell id="NiolvEhcDzaQSrsbmuZp-14" value="Yes" style="text;html=1;strokeColor=none;fillColor=none;align=center;verticalAlign=middle;whiteSpace=wrap;rounded=0;" parent="NiolvEhcDzaQSrsbmuZp-1" vertex="1">
                    <mxGeometry x="370.5" y="629" width="60" height="30" as="geometry"/>
                </mxCell>
                <mxCell id="NiolvEhcDzaQSrsbmuZp-15" value="No" style="text;html=1;strokeColor=none;fillColor=none;align=center;verticalAlign=middle;whiteSpace=wrap;rounded=0;" parent="NiolvEhcDzaQSrsbmuZp-1" vertex="1">
                    <mxGeometry x="510.5" y="559" width="60" height="30" as="geometry"/>
                </mxCell>
                <mxCell id="NiolvEhcDzaQSrsbmuZp-16" value="" style="edgeStyle=orthogonalEdgeStyle;rounded=0;orthogonalLoop=1;jettySize=auto;html=1;" parent="NiolvEhcDzaQSrsbmuZp-1" source="NiolvEhcDzaQSrsbmuZp-17" target="NiolvEhcDzaQSrsbmuZp-20" edge="1">
                    <mxGeometry relative="1" as="geometry"/>
                </mxCell>
                <mxCell id="NiolvEhcDzaQSrsbmuZp-17" value="Serial.print(&quot;Can i move forward on the right?&quot;);" style="whiteSpace=wrap;html=1;" parent="NiolvEhcDzaQSrsbmuZp-1" vertex="1">
                    <mxGeometry x="256.18" y="759" width="258.63" height="30" as="geometry"/>
                </mxCell>
                <mxCell id="NiolvEhcDzaQSrsbmuZp-18" value="" style="edgeStyle=orthogonalEdgeStyle;rounded=0;orthogonalLoop=1;jettySize=auto;html=1;" parent="NiolvEhcDzaQSrsbmuZp-1" source="NiolvEhcDzaQSrsbmuZp-20" target="NiolvEhcDzaQSrsbmuZp-22" edge="1">
                    <mxGeometry relative="1" as="geometry"/>
                </mxCell>
                <mxCell id="NiolvEhcDzaQSrsbmuZp-19" value="" style="edgeStyle=orthogonalEdgeStyle;rounded=0;orthogonalLoop=1;jettySize=auto;html=1;" parent="NiolvEhcDzaQSrsbmuZp-1" source="NiolvEhcDzaQSrsbmuZp-20" target="NiolvEhcDzaQSrsbmuZp-24" edge="1">
                    <mxGeometry relative="1" as="geometry"/>
                </mxCell>
                <mxCell id="NiolvEhcDzaQSrsbmuZp-20" value="if (right.resp)" style="rhombus;whiteSpace=wrap;html=1;" parent="NiolvEhcDzaQSrsbmuZp-1" vertex="1">
                    <mxGeometry x="330.5" y="829" width="110" height="80" as="geometry"/>
                </mxCell>
                <mxCell id="NiolvEhcDzaQSrsbmuZp-21" style="edgeStyle=orthogonalEdgeStyle;rounded=0;orthogonalLoop=1;jettySize=auto;html=1;entryX=0;entryY=0.5;entryDx=0;entryDy=0;" parent="NiolvEhcDzaQSrsbmuZp-1" source="NiolvEhcDzaQSrsbmuZp-22" target="NiolvEhcDzaQSrsbmuZp-11" edge="1">
                    <mxGeometry relative="1" as="geometry">
                        <Array as="points">
                            <mxPoint x="200.5" y="944"/>
                        </Array>
                    </mxGeometry>
                </mxCell>
                <mxCell id="NiolvEhcDzaQSrsbmuZp-22" value="Serial.print(&quot; Yes&quot;);" style="whiteSpace=wrap;html=1;" parent="NiolvEhcDzaQSrsbmuZp-1" vertex="1">
                    <mxGeometry x="135.5" y="854" width="120" height="30" as="geometry"/>
                </mxCell>
                <mxCell id="NiolvEhcDzaQSrsbmuZp-23" style="edgeStyle=orthogonalEdgeStyle;rounded=0;orthogonalLoop=1;jettySize=auto;html=1;entryX=1;entryY=0.5;entryDx=0;entryDy=0;" parent="NiolvEhcDzaQSrsbmuZp-1" source="NiolvEhcDzaQSrsbmuZp-24" target="NiolvEhcDzaQSrsbmuZp-11" edge="1">
                    <mxGeometry relative="1" as="geometry">
                        <Array as="points">
                            <mxPoint x="575.5" y="944"/>
                        </Array>
                    </mxGeometry>
                </mxCell>
                <mxCell id="NiolvEhcDzaQSrsbmuZp-24" value="Serial.print(&quot; No&quot;);" style="whiteSpace=wrap;html=1;" parent="NiolvEhcDzaQSrsbmuZp-1" vertex="1">
                    <mxGeometry x="520.5" y="854" width="120" height="30" as="geometry"/>
                </mxCell>
                <mxCell id="NiolvEhcDzaQSrsbmuZp-25" value="Yes" style="text;html=1;strokeColor=none;fillColor=none;align=center;verticalAlign=middle;whiteSpace=wrap;rounded=0;" parent="NiolvEhcDzaQSrsbmuZp-1" vertex="1">
                    <mxGeometry x="270.5" y="849" width="60" height="30" as="geometry"/>
                </mxCell>
                <mxCell id="NiolvEhcDzaQSrsbmuZp-26" value="No" style="text;html=1;strokeColor=none;fillColor=none;align=center;verticalAlign=middle;whiteSpace=wrap;rounded=0;" parent="NiolvEhcDzaQSrsbmuZp-1" vertex="1">
                    <mxGeometry x="440.5" y="849" width="60" height="30" as="geometry"/>
                </mxCell>
                <mxCell id="NiolvEhcDzaQSrsbmuZp-27" value="" style="edgeStyle=orthogonalEdgeStyle;rounded=0;orthogonalLoop=1;jettySize=auto;html=1;" parent="NiolvEhcDzaQSrsbmuZp-1" source="NiolvEhcDzaQSrsbmuZp-28" target="NiolvEhcDzaQSrsbmuZp-30" edge="1">
                    <mxGeometry relative="1" as="geometry"/>
                </mxCell>
                <mxCell id="NiolvEhcDzaQSrsbmuZp-28" value="long cms = cal_distance();" style="whiteSpace=wrap;html=1;" parent="NiolvEhcDzaQSrsbmuZp-1" vertex="1">
                    <mxGeometry x="292.5" y="280" width="185" height="30" as="geometry"/>
                </mxCell>
                <mxCell id="NiolvEhcDzaQSrsbmuZp-29" value="" style="edgeStyle=orthogonalEdgeStyle;rounded=0;orthogonalLoop=1;jettySize=auto;html=1;" parent="NiolvEhcDzaQSrsbmuZp-1" source="NiolvEhcDzaQSrsbmuZp-30" target="NiolvEhcDzaQSrsbmuZp-32" edge="1">
                    <mxGeometry relative="1" as="geometry"/>
                </mxCell>
                <mxCell id="NiolvEhcDzaQSrsbmuZp-30" value="outcome right = {false, cms};" style="whiteSpace=wrap;html=1;" parent="NiolvEhcDzaQSrsbmuZp-1" vertex="1">
                    <mxGeometry x="292.5" y="341" width="185" height="30" as="geometry"/>
                </mxCell>
                <mxCell id="NiolvEhcDzaQSrsbmuZp-31" value="" style="edgeStyle=orthogonalEdgeStyle;rounded=0;orthogonalLoop=1;jettySize=auto;html=1;" parent="NiolvEhcDzaQSrsbmuZp-1" source="NiolvEhcDzaQSrsbmuZp-32" target="NiolvEhcDzaQSrsbmuZp-34" edge="1">
                    <mxGeometry relative="1" as="geometry"/>
                </mxCell>
                <mxCell id="NiolvEhcDzaQSrsbmuZp-32" value="look_left(debug);" style="whiteSpace=wrap;html=1;" parent="NiolvEhcDzaQSrsbmuZp-1" vertex="1">
                    <mxGeometry x="292.5" y="400" width="185" height="30" as="geometry"/>
                </mxCell>
                <mxCell id="NiolvEhcDzaQSrsbmuZp-33" style="edgeStyle=orthogonalEdgeStyle;rounded=0;orthogonalLoop=1;jettySize=auto;html=1;entryX=0.5;entryY=0;entryDx=0;entryDy=0;" parent="NiolvEhcDzaQSrsbmuZp-1" source="NiolvEhcDzaQSrsbmuZp-34" target="NiolvEhcDzaQSrsbmuZp-10" edge="1">
                    <mxGeometry relative="1" as="geometry"/>
                </mxCell>
                <mxCell id="NiolvEhcDzaQSrsbmuZp-34" value="stop_moving(debug, 100);" style="whiteSpace=wrap;html=1;" parent="NiolvEhcDzaQSrsbmuZp-1" vertex="1">
                    <mxGeometry x="292.5" y="460" width="185" height="30" as="geometry"/>
                </mxCell>
            </root>
        </mxGraphModel>
    </diagram>
</mxfile>